# xmcd
#
# Track frame offsets: 
#        150
#        21906
#        47788
#        63540
#        80465
#        102731
#        123805
#        144754
#        157117
#        176236
#        202062
#        216533
#
# Disc length: 3119 seconds
#
# Revision: 1
# Processed by: cddbd v1.5.2PL0 Copyright (c) Steve Scherf et al.
# Submitted via: ExactAudioCopyFreeDBPlugin 1.0
#
DISCID=b70c2d0c
DTITLE=Royal Southern Brotherhood - Royal Southern Brotherhood
DYEAR=2012
DGENRE=Blues
TTITLE0=New Horizons
TTITLE1=Fired Up!
TTITLE2=Left My Heart In Memphis
TTITLE3=Moonlight Over The Mississippi
TTITLE4=Fire On The Mountain
TTITLE5=Ways About You
TTITLE6=Gotta Keep Rockin'
TTITLE7=Nowhere To Hide
TTITLE8=Hurts My Heart
TTITLE9=Sweet Jelly Donut
TTITLE10=All Around The World
TTITLE11=Brotherhood
EXTD=
EXTT0=
EXTT1=
EXTT2=
EXTT3=
EXTT4=
EXTT5=
EXTT6=
EXTT7=
EXTT8=
EXTT9=
EXTT10=
EXTT11=
PLAYORDER=
